<svg width="22" height="17" viewBox="0 0 22 17" fill="none" xmlns="http://www.w3.org/2000/svg">
<path fill-rule="evenodd" clip-rule="evenodd" d="M21.5463 1.90599C20.7733 2.22799 19.9423 2.44299 19.0713 2.54099C19.9613 2.04099 20.6443 1.24899 20.9663 0.306986C20.1323 0.768986 19.2103 1.10499 18.2283 1.28699C17.4433 0.500986 16.3223 0.0109863 15.0833 0.0109863C12.7033 0.0109863 10.7723 1.81999 10.7723 4.04999C10.7723 4.36699 10.8103 4.67599 10.8843 4.97099C7.30233 4.80199 4.12633 3.19399 2.00033 0.750986C1.62933 1.34799 1.41733 2.04099 1.41733 2.78199C1.41733 4.18199 2.17833 5.41999 3.33433 6.14399C2.62833 6.12199 1.96433 5.94099 1.38233 5.63799C1.38233 5.65599 1.38233 5.67099 1.38233 5.68999C1.38233 7.64699 2.86733 9.27899 4.83933 9.64999C4.47833 9.74199 4.09633 9.78999 3.70433 9.78999C3.42633 9.78999 3.15633 9.76599 2.89333 9.71999C3.44133 11.323 5.03333 12.492 6.91933 12.525C5.44433 13.608 3.58633 14.253 1.56633 14.253C1.21833 14.253 0.87533 14.234 0.53833 14.197C2.44533 15.342 4.71133 16.012 7.14533 16.012C15.0733 16.012 19.4083 9.85599 19.4083 4.51899C19.4083 4.34299 19.4033 4.16999 19.3953 3.99599C20.2373 3.42599 20.9683 2.71499 21.5463 1.90599Z" fill="white"/>
</svg>
