<svg width="20" height="19" viewBox="0 0 20 19" fill="none" xmlns="http://www.w3.org/2000/svg">
<path fill-rule="evenodd" clip-rule="evenodd" d="M19.69 12.956V8.88461V0.0109863H2.66868L0.541016 2.30769V14.4176H5.86016V18.1758H8.20059L10.7538 15.4615H17.1368L19.69 12.956ZM7.13667 12.7473H3.73242C3.49837 12.7473 3.30688 12.5594 3.30688 12.3297V2.09898C3.30688 1.86931 3.49837 1.6814 3.73242 1.6814H17.3494C17.5835 1.6814 17.775 1.86931 17.775 2.09898V10.033C17.775 10.1479 17.7324 10.2523 17.6526 10.3306L15.3122 12.6273C15.2324 12.7056 15.1207 12.7473 15.009 12.7473H11.0994L7.80157 14.971C7.73242 15.0179 7.64731 15.044 7.5622 15.044C7.49305 15.044 7.42923 15.0284 7.3654 14.9971C7.22178 14.924 7.13667 14.783 7.13667 14.6265V12.7473Z" fill="white"/>
<path d="M13.5197 9.09355V4.91772H11.8176V9.09355H13.5197ZM9.26438 9.09355V4.91772H7.56226V9.09355H9.26438Z" fill="white"/>
</svg>
