<svg width="20" height="24" viewBox="0 0 25 24" fill="none" xmlns="http://www.w3.org/2000/svg">
<path d="M8.2357 2.12217C9.50292 2.61908 10.7279 3.27538 11.8825 4.077C12.0139 4.16606 12.1641 4.21294 12.3143 4.21294C12.4645 4.21294 12.6147 4.16606 12.7461 4.077C13.9007 3.27538 15.1256 2.61439 16.3929 2.11748C16.6792 2.00497 16.8716 1.72371 16.8669 1.41431C16.8669 1.10491 16.6745 0.82833 16.3835 0.72051C13.849 -0.240495 10.7795 -0.240495 8.24978 0.72051C7.96348 0.82833 7.76636 1.1096 7.76636 1.41431C7.76636 1.71902 7.94471 2.00966 8.2357 2.12217Z" fill="white"/>
<path d="M19.1203 2.1265C18.8809 1.96243 18.5759 1.94837 18.3177 2.09369C16.9144 2.9 15.558 3.8235 14.2767 4.84076C14.1077 4.9767 14.0044 5.17828 13.9951 5.39392C13.9857 5.60956 14.0702 5.82051 14.225 5.97052C16.8815 8.49726 20.5612 16.2462 21.406 19.809C19.5756 16.715 15.4923 9.43483 12.8217 6.94559C12.5354 6.67838 12.0848 6.67838 11.7985 6.94559C9.12327 9.43483 5.05407 16.7197 3.22363 19.8184C4.06844 16.2556 7.73871 8.49726 10.3952 5.97052C10.5548 5.82051 10.6393 5.60956 10.6299 5.39392C10.6205 5.17828 10.5172 4.9767 10.3483 4.84076C9.06695 3.8235 7.70586 2.9 6.30721 2.09369C6.05846 1.94837 5.744 1.96243 5.50463 2.1265C2.2427 4.37197 0.294922 8.06129 0.294922 11.9991C0.294922 14.8774 1.33217 17.6526 3.22363 19.8184C5.48586 22.4717 8.79473 23.9999 12.3101 23.9999C15.8255 23.9999 19.1391 22.4764 21.406 19.8137C23.2881 17.6573 24.3253 14.8821 24.3253 11.9991C24.3253 8.06129 22.3775 4.37197 19.1203 2.1265Z" fill="white"/>
</svg>
