<svg width="20" height="26" viewBox="0 0 27 26" fill="none" xmlns="http://www.w3.org/2000/svg">
<path fill-rule="evenodd" clip-rule="evenodd" d="M13.2814 25.902C20.4369 25.902 26.2375 20.1255 26.2375 12.9999C26.2375 5.87434 20.4369 0.0979004 13.2814 0.0979004C6.12587 0.0979004 0.325195 5.87434 0.325195 12.9999C0.325195 14.3143 0.522547 15.5827 0.889352 16.7774C0.982948 16.7942 1.13429 16.8326 1.35483 16.8969L1.0105 11.5017C1.0105 11.4028 1.17802 11.3552 1.33149 11.3117C1.41573 11.2877 1.49573 11.265 1.54149 11.2357C1.66644 11.157 4.23966 12.0927 4.37711 12.1548L7.66766 13.637C8.51737 13.1029 9.53369 12.8876 10.5334 13.0325L13.524 9.40147C13.5615 6.50326 15.9357 4.16813 18.8555 4.16399C21.5838 4.19297 23.8455 6.26312 24.1037 8.95846C24.3786 11.8732 22.2294 14.4568 19.297 14.7342L14.3154 18.2741C14.0113 19.8268 12.895 21.0978 11.3872 21.6029C9.07551 22.3813 6.56387 21.1475 5.78497 18.8455L4.05223 18.2741C3.92375 18.2335 1.56562 17.2566 0.926974 16.8979C2.58637 22.1182 7.49015 25.902 13.2814 25.902ZM21.5214 9.46349C21.5214 10.9269 20.3279 12.1133 18.8556 12.1133C17.3833 12.1133 16.1898 10.9269 16.1898 9.46349C16.1898 8.00005 17.3833 6.81369 18.8556 6.81369C20.3279 6.81369 21.5214 8.00005 21.5214 9.46349ZM20.6347 9.46355C20.6347 10.4399 19.8384 11.2315 18.8561 11.2315C17.8738 11.2315 17.0775 10.4399 17.0775 9.46355C17.0775 8.48716 17.8738 7.69564 18.8561 7.69564C19.8384 7.69564 20.6347 8.48716 20.6347 9.46355ZM8.81371 19.7978C9.17192 19.9717 9.56761 20.0628 9.96746 20.0628C10.2715 20.0628 10.5672 20.0131 10.8588 19.9179C11.5294 19.686 12.075 19.2016 12.3833 18.5681C13.0247 17.2474 12.4666 15.6658 11.142 15.0282C10.9171 14.9205 10.6547 15.0116 10.5464 15.2311C10.4381 15.4546 10.5298 15.7155 10.7505 15.8231C10.7797 15.8356 10.8088 15.848 10.838 15.8645C11.7127 16.3117 12.05 17.3757 11.6002 18.2452C11.1504 19.1147 10.0758 19.45 9.20524 19.0029C8.98032 18.8952 8.71792 18.9863 8.60962 19.2058C8.50133 19.4293 8.59296 19.6902 8.81371 19.7978Z" fill="white"/>
</svg>
